<mxfile host="app.diagrams.net" modified="2023-06-01T03:12:54.466Z" agent="Mozilla/5.0 (Windows NT 10.0; Win64; x64) AppleWebKit/537.36 (KHTML, like Gecko) Chrome/113.0.0.0 Safari/537.36" version="21.1.9" etag="HdoxG5dPxSdwSMSqA_HR" type="github">
  <diagram name="第 1 页" id="VirfYRVAI2r6WpwO7q-g">
    <mxGraphModel>
      <root>
        <mxCell id="0" />
        <mxCell id="1" parent="0" />
      </root>
    </mxGraphModel>
  </diagram>
</mxfile>
